<?xml version="1.0" standalone="no"?>
<!DOCTYPE svg PUBLIC "-//W3C//DTD SVG 20010904//EN"
 "http://www.w3.org/TR/2001/REC-SVG-20010904/DTD/svg10.dtd">
<svg version="1.0" xmlns="http://www.w3.org/2000/svg"
 width="1000.000000pt" height="1000.000000pt" viewBox="0 0 1000.000000 1000.000000"
 preserveAspectRatio="xMidYMid meet">
<metadata>
Created by potrace 1.15, written by Peter Selinger 2001-2017
</metadata>
<g transform="translate(0.000000,1000.000000) scale(0.100000,-0.100000)"
fill="#000000" stroke="none">
<path d="M0 5000 l0 -5000 5000 0 5000 0 0 5000 0 5000 -5000 0 -5000 0 0
-5000z m2140 3400 l0 -620 -620 0 -620 0 0 620 0 620 620 0 620 0 0 -620z
m4535 -5910 c147 -248 270 -452 274 -454 3 -3 128 200 276 450 l270 454 153 0
c120 0 152 -3 146 -12 -5 -7 -167 -265 -361 -573 l-353 -560 0 -382 0 -383
-130 0 -130 0 0 386 0 386 -355 563 c-195 309 -355 565 -355 569 0 3 67 6 148
6 l149 0 268 -450z m1655 -395 l0 -845 485 0 485 0 0 -110 0 -110 -615 0 -615
0 0 955 0 955 130 0 130 0 0 -845z"/>
</g>
</svg>
